PathFileType	4	(X/Y/Z)	pose_F01_0-88.trc
DataRate	CameraRate	NumFrames	NumMarkers	Units	OrigDataRate	OrigDataStartFrame	OrigNumFrames
30	30	9	21	m	30	44	88
Frame#	Time	CHip			RHip			RKnee			RAnkle			RBigToe			RSmallToe			RHeel			LHip			LKnee			LAnkle			LBigToe			LSmallToe			LHeel			Neck			Nose			RShoulder			RElbow			RWrist			LShoulder			LElbow			LWrist			
		X1	Y1	Z1	X2	Y2	Z2	X3	Y3	Z3	X4	Y4	Z4	X5	Y5	Z5	X6	Y6	Z6	X7	Y7	Z7	X8	Y8	Z8	X9	Y9	Z9	X10	Y10	Z10	X11	Y11	Z11	X12	Y12	Z12	X13	Y13	Z13	X14	Y14	Z14	X15	Y15	Z15	X16	Y16	Z16	X17	Y17	Z17	X18	Y18	Z18	X19	Y19	Z19	X20	Y20	Z20	X21	Y21	Z21	
44	1.4666666666666666	-0.16721615889172775	1.8472304029496502	-0.6067393818939782	-0.17946417432666906	1.8481166824594966	-0.5422475734871681	-0.21230502538360652	1.742602473106193	-0.5138455653637364	-0.17356980814936715	1.6412359420703475	-0.5205847851458302	-0.20389655088914518	1.5999259304669018	-0.4961903293646059	-0.19774058624817847	1.6080929128386416	-0.4767460301122175	-0.16411556362063087	1.6388392840405541	-0.535050520333217	-0.15074857372989908	1.8464258962506936	-0.6701480601998682	-0.15947071312239275	1.7194234844046152	-0.6409132401503977	-0.15671454327579626	1.59210418553375	-0.6200273324842633	-0.1882829825576767	1.5585452124055372	-0.5964696311197558	-0.17859371297821158	1.5593525981581424	-0.627321164512906	-0.149210486843061	1.5811096709426928	-0.6090956163970028	-0.15176501231650494	1.9944475845465142	-0.6405582410135748	-0.17268367516945887	2.055508898922096	-0.6213362942188194	-0.16932574326679709	1.9925722062182771	-0.5463349652123997	-0.16721241744084608	1.9227140990944052	-0.517848722886763	-0.17850289668508126	1.8708699298808897	-0.4902929258642438	-0.13359617883225858	1.9972452608684503	-0.7318726285682411	-0.1226866357665034	1.919411134632224	-0.7714864622504695	-0.1702851092069439	1.9133465124365998	-0.6864684809046976
45	1.5	-0.16990462232486664	1.8458037152682034	-0.6073389508064403	-0.18115535908126304	1.8465197545539738	-0.5398578460095546	-0.1990526969265248	1.725680683091993	-0.5214779198246065	-0.16719851020775447	1.6169608015212509	-0.5198127333167236	-0.19558175678903328	1.579407802974958	-0.488632887909203	-0.190899693042469	1.5872444016655007	-0.4678411770042449	-0.1648774457070877	1.6089644093398514	-0.5300769811761151	-0.15692326133790171	1.8448735125871347	-0.6631459019506887	-0.1638230460571539	1.7192322617849063	-0.6362209119514679	-0.15787201578010276	1.5907340006732842	-0.6226963467759454	-0.1909457029710218	1.5556527715559083	-0.5931729549401986	-0.1810996950453928	1.5577562033314594	-0.6245803917435235	-0.15008184534739488	1.5808115094185622	-0.6123660321164611	-0.1537439801583918	1.9955140654137036	-0.6381979681130318	-0.1726405349507034	2.055541539031128	-0.6213681812421386	-0.1694029834261009	1.992517415136045	-0.5462150728632013	-0.16772686441337328	1.9237622679928565	-0.5217691647374115	-0.1836735267037438	1.872006951159781	-0.48832735662240834	-0.13489819643420603	1.9983240840286547	-0.7266341079324474	-0.1174261349002831	1.9195374023647656	-0.7730553311231521	-0.16199552017263594	1.901173069401357	-0.6940523125535327
46	1.5333333333333334	-0.1723435303588509	1.8414648873587105	-0.5957173789863373	-0.18233561705134207	1.8423134672287036	-0.5335342064968156	-0.1802513256298701	1.7140822211258406	-0.5228421627402084	-0.1661321328213119	1.6014943060300368	-0.5196335810007822	-0.1917288563054995	1.568416910414385	-0.48781645176912347	-0.18873050749048972	1.5746103568380527	-0.4650013644264518	-0.1620981152942817	1.5919422015606621	-0.5315887014878831	-0.16045148562392106	1.8431529433461051	-0.6548471999048695	-0.17046376596086485	1.716043880465258	-0.6287790459768294	-0.15792311591738695	1.5907241226966355	-0.6226457299848631	-0.18877530429837544	1.5556413122207426	-0.595208251881405	-0.1801012665203833	1.559129448572925	-0.6296401264271391	-0.14830276359188838	1.579643147737075	-0.6140394168811585	-0.1551402433066277	1.9941284822655576	-0.6327981254743231	-0.17263765062426265	2.055505654488492	-0.6213091345972168	-0.17153782832063544	1.9913169021039412	-0.5438426815614835	-0.16914497922061675	1.9244323450835277	-0.5168285168192408	-0.19454226784575798	1.8798394510975018	-0.46396608962135805	-0.13505187704718719	1.9970237082820466	-0.7264674155065632	-0.11428713485205544	1.9272641414446008	-0.7736237920632328	-0.14516644029580933	1.8915772002692517	-0.7145647789418915
47	1.5666666666666667	-0.17245117532816473	1.842431812357695	-0.5870312918117339	-0.18318622529047512	1.8394208217805483	-0.5273783723469878	-0.1760003813407482	1.715855105705996	-0.523478402401656	-0.16624077358575096	1.5993860170847154	-0.5238882796191209	-0.19329812843539462	1.5651947130339956	-0.48613367868522317	-0.1883393334382413	1.5719869579123384	-0.4652257433875631	-0.16258368478412039	1.586371330018948	-0.5347084221888153	-0.16170610968230809	1.8429965749509367	-0.6492485370929987	-0.1839054520046361	1.716128309031704	-0.6105730631251624	-0.16823837953505807	1.5929320323647218	-0.6126021902780953	-0.19299487987992706	1.555266103918999	-0.5908810594374684	-0.18435806555421203	1.5609584927230602	-0.6258375511129083	-0.15717709360047966	1.583839468812948	-0.6100485950386193	-0.1577347079648271	1.9912770285535903	-0.6214739939483324	-0.1739141592192983	2.0552525516291795	-0.6159616746910227	-0.1759290857892832	1.9898367418715817	-0.530601903328605	-0.176549838982374	1.9202914125867938	-0.4951448820567964	-0.20585747830723053	1.8967700049373557	-0.45338038653810836	-0.1365335216121481	1.995639604548117	-0.7210805296750362	-0.11024966294244193	1.9271616942936487	-0.7695390858752451	-0.1383476750318989	1.8825662618871704	-0.7202167540046427
48	1.6	-0.16808793067012504	1.843541673570516	-0.5831260468167839	-0.17872809956958044	1.8404909363624544	-0.5232768989590753	-0.1774564736054772	1.7141533397270987	-0.5214036269262537	-0.16290373854951523	1.5982737112890355	-0.527305809607255	-0.19156558269955143	1.5574550028587903	-0.49041317974029197	-0.18460787298012396	1.561276477926643	-0.47136193450211095	-0.15698336516524092	1.586543251504053	-0.5407645200289752	-0.15805711850514234	1.8467317273789157	-0.6490042647519563	-0.19856194875840907	1.72755118472131	-0.6003638678601912	-0.18266150485883642	1.5996237343728774	-0.5983845446077436	-0.21905739133293003	1.5607217202535484	-0.5607356309615241	-0.2138567776802689	1.5650771913992876	-0.5921902808648127	-0.16799994675911273	1.5914634774200602	-0.5995466856923231	-0.15708795887691238	1.9888653807119294	-0.6181606880760712	-0.1751046555651551	2.0538211901639727	-0.6100964378441528	-0.17837773407007843	1.9846989991350794	-0.5193087795921435	-0.18210473613587147	1.907125820922561	-0.4674159312578839	-0.2084952127179955	1.9142561532053797	-0.44888324783081796	-0.13269594333913134	1.994144805460361	-0.7168555934086889	-0.10579024653092346	1.9282728017280526	-0.7627128052578505	-0.13497407797608327	1.8785158466295742	-0.7391624452917307
49	1.6333333333333333	-0.16741461524546947	1.846269009098705	-0.5802586104155115	-0.17806029706863202	1.843244561570964	-0.5202785491783958	-0.17215413286216158	1.7242289102846529	-0.5242632560136065	-0.1605761060255264	1.599486645176471	-0.5299986641539116	-0.19153770561742867	1.5596573340937272	-0.49100654564192814	-0.1848856281342147	1.562643293762773	-0.47146366316728894	-0.15138304554636142	1.5867151729891582	-0.5468206178691352	-0.15653972090673562	1.8494070571677736	-0.6429933084114202	-0.2116611018837865	1.7470652593722393	-0.5886137925860663	-0.18569607159718876	1.6144517191656083	-0.5965687772480928	-0.22215677750202295	1.5759415358043793	-0.562821778899981	-0.21671650652318103	1.5799367432414146	-0.5942908268209864	-0.17235719924652054	1.6030943872182584	-0.6000354760490297	-0.15614024706375126	1.989906061296325	-0.6149753811362803	-0.1762976416337479	2.053582918835594	-0.6047513786943838	-0.17827477141437972	1.985759975410429	-0.5191683716143488	-0.18330169187495526	1.9096427390919828	-0.4535514347021381	-0.21292590266498124	1.9310889214643578	-0.4506327655063735	-0.1318868871940775	1.9941133615526887	-0.7137195728098732	-0.1039948481308705	1.930770700489036	-0.7565734460036854	-0.12479770784230375	1.881212956414808	-0.7457526754293714
50	1.6666666666666667	-0.1680437481735982	1.8502726930630073	-0.5839375042928219	-0.1780356418548047	1.8459629464291898	-0.5208406215101122	-0.17171176025213067	1.7265249676894077	-0.5249539048711472	-0.15252845475419494	1.6104333657021848	-0.5365211698755398	-0.19039252476730048	1.5592602448840789	-0.4921139780637989	-0.18473959745620447	1.562094080634894	-0.4714796152590738	-0.15417827135587125	1.5872894989956654	-0.5438903686839255	-0.15645350517009465	1.8545937280120035	-0.6437759581460578	-0.2110449606017259	1.7531026332970885	-0.5856910494643522	-0.18719716405669015	1.6280209668178918	-0.5915636119370932	-0.22486455850481182	1.5900986998401025	-0.5516941367705744	-0.2183593285306862	1.5939409937977949	-0.5801374984973209	-0.17261311233204543	1.6180812706039618	-0.5925067518648955	-0.15732172052209223	1.9898096349052063	-0.6097148446679155	-0.17836195970855304	2.05237362474918	-0.6025489748280565	-0.17746032890479813	1.9868543461342765	-0.5164180680319516	-0.18132609678704814	1.9094315233705526	-0.44684259339700216	-0.2100151175695754	1.9363440684248914	-0.45078688382440835	-0.13316224278869757	1.9964642418065919	-0.7086998968059904	-0.1010183464199313	1.9320016764279448	-0.7560428270204883	-0.12404140816985179	1.8810971999187331	-0.7426457739293809
51	1.7	-0.16948069537146515	1.8488025663552896	-0.5783270532105851	-0.18026298971975763	1.8445562215274578	-0.5182329630719942	-0.17242006598312945	1.7261460266308837	-0.5242003647589162	-0.15453557233709458	1.60547889851873	-0.5334003990752274	-0.1892473439171723	1.5588631556744303	-0.4932214104856697	-0.18459356677819425	1.5615448675070147	-0.47149556735085857	-0.15697349716538106	1.5878638250021726	-0.5409601194987157	-0.15895641982915218	1.8520379003179124	-0.6409774020792469	-0.21058174629886175	1.7486677439696061	-0.5815740605474	-0.18287157302063273	1.6333710517007354	-0.5879874400569186	-0.2207467065932217	1.590616483778577	-0.5471530176560488	-0.214429533201084	1.5953033962159575	-0.5759069533175631	-0.1690679704983618	1.625411435431457	-0.588320421689888	-0.15730503844789692	1.9922043947670829	-0.6099956985459999	-0.17748789841512588	2.0534164252529012	-0.599439942315031	-0.17743672586918877	1.986942717553682	-0.5163872929900272	-0.17839710920117116	1.9094255111826488	-0.4458408546379784	-0.20730252780891847	1.9400455518503121	-0.45107344472910427	-0.1353451159667847	1.9963903946700716	-0.7062862236843918	-0.10267368278883147	1.9305677477069594	-0.7505737464852531	-0.1264580588324684	1.879843583556718	-0.7401478886053093
52	1.7333333333333334	-0.170372497305709	1.846665822508808	-0.577828995930495	-0.18081712222853458	1.8420657000200475	-0.5178214845516347	-0.17587418227145452	1.7191738902557216	-0.5195457404468404	-0.16288760921695164	1.6027602633786122	-0.5238085473369407	-0.19527113440761412	1.5626786563253834	-0.4876360965211576	-0.1885339792325956	1.5679207286196357	-0.4684137079958785	-0.15976872297489086	1.5884381510086798	-0.538029870313506	-0.16085380105297714	1.8495313565303915	-0.635139305349478	-0.19417242415297015	1.7411402055539889	-0.5941407633522012	-0.17105810415196068	1.6266802825918147	-0.5953132761529346	-0.20764210061482932	1.591255965157968	-0.5569692745787144	-0.19992198808294642	1.598618064645572	-0.5917455003283999	-0.16176175218339914	1.6206901852059086	-0.5953909525305394	-0.15740991691119396	1.9910889505247753	-0.6098707552604287	-0.17755290634116996	2.0546350838795875	-0.5998489337204616	-0.17649153294432837	1.9869281910517285	-0.5133141213825921	-0.173502762879429	1.9088002929042314	-0.4646701752097321	-0.20108212715150367	1.9274025522876759	-0.4613332411581962	-0.13476275580477506	1.9950641918717378	-0.7032232698051198	-0.10792900040126308	1.9305842389652077	-0.7487914230845656	-0.13583406850260804	1.8770373097720612	-0.730265265331506
